/* XPM */
static char * audio32_xpm[] = {
"32 32 6 1",
" 	c None",
".	c #474747",
"+	c #98C0DD",
"@	c #5D9CC9",
"#	c #4283AF",
"$	c #474C4F",
"                                ",
"                                ",
"                                ",
"                                ",
"                   ..           ",
"                 ..++.          ",
"               ..++@@@.         ",
"             ..++@@@@@#. $      ",
"           ..++@@@@@@@#.  $     ",
"         ..++@@@@@@@@@#.   $    ",
"       ..++@@@@@@@@@@@#. $  $   ",
"  ......+@@@@@@@@@@@@@#.  $  $  ",
" .+++++.@@@@@@@@@@@@@@#.   $  $ ",
" .+@@@@.@@@@@@@@@@@@@@#. $  $ $ ",
" .+@@@@.@@@@@@@@@@@@@@#.  $ $ $ ",
" .+@@@@.@@@@@@@@@@@@@@#.  $ $ $ ",
" .+@@@@.@@@@@@@@@@@@@@#.  $ $ $ ",
" .+@@@@.@@@@@@@@@@@@@@#.  $ $ $ ",
" .+@@@@.@@@@@@@@@@@@@@#. $  $ $ ",
" .+@@@@.@@@@@@@@@@@@@@#.   $  $ ",
" .+####.@@@@@@@@@@@@@@#.  $  $  ",
"  ......#@@@@@@@@@@@@@#. $  $   ",
"       ..##@@@@@@@@@@@#.   $    ",
"         ..##@@@@@@@@@#.  $     ",
"           ..##@@@@@@@#. $      ",
"             ..##@@@@@#.        ",
"               ..##@@#.         ",
"                 ..##.          ",
"                   ..           ",
"                                ",
"                                ",
"                                "};
