/* XPM */
static char * audio16_xpm[] = {
"16 16 4 1",
" 	c None",
".	c #474747",
"+	c #5D9CC9",
"@	c #474C4F",
"                ",
"                ",
"        ...     ",
"      ..+++.    ",
"    ..+++++. @  ",
" ...+++++++.  @ ",
".++.+++++++.@  @",
".++.+++++++. @ @",
".++.+++++++. @ @",
".++.+++++++. @ @",
" ...+++++++.@  @",
"    ..+++++.  @ ",
"      ..+++. @  ",
"        ...     ",
"                ",
"                "};
