/* XPM */
static char * bin16_xpm[] = {
"16 16 92 2",
"  	c None",
". 	c #000000",
"+ 	c #444444",
"@ 	c #6A6A6A",
"# 	c #818181",
"$ 	c #636363",
"% 	c #191919",
"& 	c #989898",
"* 	c #FFFFFF",
"= 	c #D9D9D9",
"- 	c #212121",
"; 	c #171717",
"> 	c #2F2F2F",
", 	c #888888",
"' 	c #BBBBBB",
") 	c #B7B7B7",
"! 	c #F6F6F6",
"~ 	c #ECECEC",
"{ 	c #CCCCCC",
"] 	c #A0A0A0",
"^ 	c #B0B0B0",
"/ 	c #3D3D3D",
"( 	c #858585",
"_ 	c #BFBFBF",
": 	c #C5C5C5",
"< 	c #E6E6E6",
"[ 	c #F7F7F7",
"} 	c #E2E2E2",
"| 	c #BDBDBD",
"1 	c #ADADAD",
"2 	c #414141",
"3 	c #111111",
"4 	c #C4C4C4",
"5 	c #F4F4F4",
"6 	c #F5F5F5",
"7 	c #E4E4E4",
"8 	c #B3B3B3",
"9 	c #B5B5B5",
"0 	c #BEBEBE",
"a 	c #363636",
"b 	c #E5E5E5",
"c 	c #B9B9B9",
"d 	c #ACACAC",
"e 	c #B4B4B4",
"f 	c #121212",
"g 	c #808080",
"h 	c #9F9F9F",
"i 	c #E3E3E3",
"j 	c #CBCBCB",
"k 	c #959595",
"l 	c #1B1B1B",
"m 	c #777777",
"n 	c #B6B6B6",
"o 	c #929292",
"p 	c #494949",
"q 	c #A7A7A7",
"r 	c #DFDFDF",
"s 	c #E0E0E0",
"t 	c #525252",
"u 	c #606060",
"v 	c #A6A6A6",
"w 	c #D3D3D3",
"x 	c #C7C7C7",
"y 	c #9A9A9A",
"z 	c #B8B8B8",
"A 	c #9D9D9D",
"B 	c #C1C1C1",
"C 	c #828282",
"D 	c #707070",
"E 	c #B2B2B2",
"F 	c #2C2C2C",
"G 	c #C0C0C0",
"H 	c #AAAAAA",
"I 	c #A3A3A3",
"J 	c #5B5B5B",
"K 	c #0F0F0F",
"L 	c #595959",
"M 	c #898989",
"N 	c #787878",
"O 	c #575757",
"P 	c #848484",
"Q 	c #8A8A8A",
"R 	c #2A2A2A",
"S 	c #131313",
"T 	c #7C7C7C",
"U 	c #969696",
"V 	c #747474",
"W 	c #2E2E2E",
"X 	c #4B4B4B",
"Y 	c #6C6C6C",
"Z 	c #181818",
"` 	c #303030",
"          . + @ # $ .           ",
"      % . . & * * = . - ;       ",
"    > , ' . ) ! ~ { . ] ^ /     ",
"    ( _ : < [ } { | ' _ _ 1 2   ",
"  3 ( 4 5 6 7 4 _ ' 8 9 0 . a   ",
"  . . . [ b : c d | e 8 . .     ",
"f g h i ~ j k l . m n 8 8 d o p ",
"l q _ r s n t     . ] 9 8 0 _ u ",
"% v _ w x n t     . y e 8 z _ u ",
"f g A . B 0 C l . D E 8 . . . F ",
"    . q G _ 0 H I 8 8 8 8 J     ",
"  K L M n _ _ _ _ ' 8 d , N %   ",
"    O P Q . _ _ _ ' . M ( m R   ",
"    S L T . @ U M m . . V W     ",
"      . . . X g g Y . . .       ",
"          . Z W ` ` .           "};
