/* XPM */
static char * bin32_xpm[] = {
"32 32 15 1",
" 	c None",
".	c #000000",
"+	c #404040",
"@	c #808080",
"#	c #BFBFBF",
"$	c #FFFFFF",
"%	c #0A0A0A",
"&	c #464646",
"*	c #383838",
"=	c #F3F3F3",
"-	c #C4C4C4",
";	c #E1E1E1",
">	c #B3B3B3",
",	c #858585",
"'	c #757575",
"             .....              ",
"           .+@@##@@.            ",
"           .@$$$$$$.   .        ",
"      .+%  .@$$$$$$.  .+.       ",
"     .&##*..@$=====+..+##+.     ",
"    .@#--#@#-$==;;###@#--#+.    ",
"   .@######$$$;;;##########+    ",
"   +#####$$==;;####>>#######.   ",
"  .&####$$==;;#####>>>>#####+.  ",
"   .@##$$===;######>>>>>###+.   ",
"    .@#$==;;#######>>>>>>#&.    ",
"    .#$$==;####@@###>>>>>#,.    ",
".+++@#$==;###+....@##>>>>>#+++. ",
".@####==;;##+.    .@#>>>>>####'.",
".,####==;##@.      .##>>>>####@.",
".,####=;;##@.      .@#>>>>####@.",
".@####;;###@.      .@#>>>>>###@.",
".@####;-###@.      .>>>>>>>###@.",
".@####;-###>+.    .@#>>>>>>###+.",
".+++'#--####,+....'>>>>>>>>+++. ",
"    .,#-#####>@@@@>>>>>>>>@.    ",
"    .@>############>>>>>>>+.    ",
"   .+,,############>>>>>,,@+.   ",
"  .+,,,,###########>>>>,,,,@..  ",
"   +@,,,,##########>>>,,,,,@.   ",
"   .+@,,,,,########>,,,,,,@*    ",
"    .+@@@@+@@,>>,,@@@+@@@@+.    ",
"     .+@@...+@@@@@@...+@@%.     ",
"      ...  .+@@@@@@.  ...       ",
"           .+@@@@@@.   .        ",
"           ..++&&++.            ",
"             .....              "};
