/* XPM */
static char * code16_xpm[] = {
"16 16 4 1",
" 	c None",
".	c #474747",
"+	c #EFEFEF",
"@	c #FF0000",
"                ",
"  ........      ",
"  .++++++..     ",
"  .++++++.+.    ",
"  .++++++.++.   ",
"  .++++++.....  ",
"  .++++++++++.  ",
"  .++@++@+@++.  ",
"  .+@+++@++@+.  ",
"  .+@+++@++@+.  ",
"  .+@++@+++@+.  ",
"  .+@++@+++@+.  ",
"  .++@+@++@++.  ",
"  .++++++++++.  ",
"  ............  ",
"                "};
