/* XPM */
static char * code32_xpm[] = {
"32 32 52 1",
" 	c None",
".	c #474747",
"+	c #EFEFEF",
"@	c #F5C4C4",
"#	c #FF0000",
"$	c #F8ABAB",
"%	c #F4CCCC",
"&	c #F3D2D2",
"*	c #FB8383",
"=	c #F2DEDE",
"-	c #FC7272",
";	c #F5C2C2",
">	c #F1E3E3",
",	c #FF1414",
"'	c #FC7878",
")	c #FC7373",
"!	c #FB7A7A",
"~	c #F4CBCB",
"{	c #F7B2B2",
"]	c #F6BDBD",
"^	c #F2DBDB",
"/	c #FF0B0B",
"(	c #FA8B8B",
"_	c #F3D4D4",
":	c #FD6464",
"<	c #FF2B2B",
"[	c #F0E8E8",
"}	c #F4CFCF",
"|	c #FE3636",
"1	c #F99B9B",
"2	c #F2D8D8",
"3	c #F3D5D5",
"4	c #FA9393",
"5	c #F7B6B6",
"6	c #FD5858",
"7	c #F5C0C0",
"8	c #F0EBEB",
"9	c #F99E9E",
"0	c #F4CDCD",
"a	c #FD5A5A",
"b	c #EFEDED",
"c	c #F5C7C7",
"d	c #FC7979",
"e	c #F0ECEC",
"f	c #FE4040",
"g	c #FE5050",
"h	c #EFEEEE",
"i	c #F3D7D7",
"j	c #F5C6C6",
"k	c #F8A8A8",
"l	c #FB8686",
"m	c #F2DCDC",
"                                ",
"                                ",
"    ................            ",
"    .+++++++++++++.+.           ",
"    .+++++++++++++.++.          ",
"    .+++++++++++++.+++.         ",
"    .+++++++++++++.++++.        ",
"    .+++++++++++++.+++++.       ",
"    .+++++++++++++.++++++.      ",
"    .+++++++++++++.+++++++.     ",
"    .+++++++++++++.++++++++.    ",
"    .+++++++++++++..........    ",
"    .++++++++++++++++++++++.    ",
"    .++++++++++++++++++++++.    ",
"    .++++++++++++++++++++++.    ",
"    .+++++++++++@#$++++++++.    ",
"    .++++++%&+++*#=&%++++++.    ",
"    .++++%-#;++>,'+;#)%++++.    ",
"    .++%-#!~+++{#]++~!#)%++.    ",
"    .^-/(_+++++:<[++++_(/)^.    ",
"    .}|<12++++3#4+++++21<|}.    ",
"    .+[56#-78+9#0++87-#a5[+.    ",
"    .+++bcd#7efgh++7#dcb+++.    ",
"    .++++++i2j#k+++2i++++++.    ",
"    .++++++++l#m+++++++++++.    ",
"    .++++++++++++++++++++++.    ",
"    .++++++++++++++++++++++.    ",
"    .++++++++++++++++++++++.    ",
"    .++++++++++++++++++++++.    ",
"    ........................    ",
"                                ",
"                                "};
