/* XPM */
static char * compressed32_xpm[] = {
"32 32 7 1",
" 	c None",
".	c #000000",
"+	c #3D84B7",
"@	c #5D9CC9",
"#	c #A3A3A3",
"$	c #8EB2CD",
"%	c #98C0DD",
"                                ",
"                                ",
"    ........                    ",
"   .++++++++.                   ",
"   .+++++++++.                  ",
"   .++++++++++.                 ",
"   .+++++++++++.                ",
"   .+++++++++++.                ",
"   .+++++++++++.                ",
"   .........................    ",
"   .@@@@@@@@@@@@@@@@@@@@@@@@.   ",
"   .@@@@@@@@@@@@@@@@@@@@@@@@.   ",
"   .@@@@@@@@@@@@@@@@@@@@@@@@.   ",
"   .@@@@@@@@@@@@@@@@@@@@@@@@.   ",
"   .@@@@@@@@@@@@@@@@@@@@@@@@.   ",
"   ..........................   ",
"   .###.###.###.###.###.###..   ",
"   .#.#.#.#.#.#.#.#.#.#.#.#..   ",
"   .#.###.###.###.###.###.##.   ",
"   ..........................   ",
"   .$$$$$$$$$$$$$$$$$$$$$$$$.   ",
"   .%%%%%%%%%%%%%%%%%%%%%%%%.   ",
"   .%%%%%%%%%%%%%%%%%%%%%%%%.   ",
"   .%%%%%%%%%%%%%%%%%%%%%%%%.   ",
"   .%%%%%%%%%%%%%%%%%%%%%%%%.   ",
"   .$$$$$$$$$$$$$$$$$$$$$$$$.   ",
"   .@@@@@@@@@@@@@@@@@@@@@@@@.   ",
"   .@@@@@@@@@@@@@@@@@@@@@@@@.   ",
"    ........................    ",
"                                ",
"                                ",
"                                "};
