/* XPM */
static char * compressed16_xpm[] = {
"16 16 6 1",
" 	c None",
".	c #000000",
"+	c #3D84B7",
"@	c #5D9CC9",
"#	c #A3A3A3",
"$	c #98C0DD",
"                ",
" .....          ",
" .++++.         ",
" .+++++.        ",
" .............  ",
" .@@@@@@@@@@@.  ",
" .@@@@@@@@@@@.  ",
" .............  ",
" .#.#.#.#.#.#.  ",
" .............  ",
" .$$$$$$$$$$$.  ",
" .$$$$$$$$$$$.  ",
" .@@@@@@@@@@@.  ",
" .............  ",
"                ",
"                "};
