/* XPM */
static char * config32_xpm[] = {
"32 32 5 1",
" 	c None",
".	c #474747",
"+	c #EFEFEF",
"@	c #000000",
"#	c #828282",
"                                ",
"                                ",
"    ................            ",
"    .+++++++++++++.+.           ",
"    .+++++++++++++.++.          ",
"    .+++++++++++++.+++.         ",
"    .++@@@@@@@@@++.++++.        ",
"    .+++++++++++++.+++++.       ",
"    .+++++++++++++.++++++.      ",
"    .++@@@@@@@@@++.+++++++.     ",
"    .+++++++++++++.++++++++.    ",
"    .+++++++++++++..........    ",
"    .++@@@@@@@@@+++++++++++.    ",
"    .++++++++++++++++++++++.    ",
"    .++++++++++++++++++++++.    ",
"    .++@@@@@@@@@@@@@@@@@@++.    ",
"    .+++++++++++++@@+++++++.    ",
"    .++++++++++++@##@++++++.    ",
"    .+++++++++++++@#@++++++.    ",
"    .++++++++++@++@#@++++++.    ",
"    .+++++++++@#@@##@++++++.    ",
"    .+++++++++@######@+++++.    ",
"    .++++++++++@@@@###@++++.    ",
"    .++++++++++++++@###@+++.    ",
"    .+++++++++++++++@###@++.    ",
"    .++++++++++++++++@###@+.    ",
"    .+++++++++++++++++@##@+.    ",
"    .++++++++++++++++++@@@+.    ",
"    .++++++++++++++++++++++.    ",
"    ........................    ",
"                                ",
"                                "};
