/* XPM */
static char * device16_xpm[] = {
"16 16 5 1",
" 	c None",
".	c #474747",
"+	c #5D9CC9",
"@	c #4586B2",
"#	c #8FD569",
"                ",
"                ",
"                ",
"                ",
"     .......... ",
"    .+++++++.@. ",
"   .+++++++.@@. ",
"  .........@@@. ",
" .++++++++.@@.  ",
" .+#+....+.@.   ",
" .+++....+..    ",
" .++++++++.     ",
"  ........      ",
"                ",
"                ",
"                "};
