/* XPM */
static char * filemon_xpm[] = {
"128 128 9 1",
" 	c None",
".	c #010101",
"+	c #2F2F2F",
"@	c #D3A854",
"#	c #D0D0D0",
"$	c #529BB9",
"%	c #6CB0D1",
"&	c #63B0CD",
"*	c #FEFDFF",
"                                                                                                                                ",
"                                                                                                                                ",
"                                                                                                                                ",
"                                                                                                                                ",
"                                                                                                                                ",
"                                                                                                                                ",
"                                                                                                                                ",
"                                                                                                                                ",
"                                                                                                                                ",
"                                                           .                                                                    ",
"                                                          +++                                                                   ",
"                                                         .+++                                                                   ",
"                                                        +.+++                                               .......             ",
"                                                       ..++++                                             .........             ",
"                           .+                         +.++++++                                          ............            ",
"                           ++..                       .+++++++                                         ............             ",
"                           +++..                     ..+++++++                                        ............              ",
"                           ++++...                  ..++++++++                                       .........                  ",
"                           +++++...                +..++++++++                                      .......+                    ",
"                           ++++++...              +..+++++++++                                     +......                      ",
"                           +++++++...     +..............+++++                                     ......                       ",
"                           ++++++++...++................++++++                                     .....                        ",
"                           +++++++++......................++++                                    +.....                        ",
"                           ++++++..........................+++                                    ......                        ",
"                            +++++............................                                     .....                         ",
"                            +++++............................                                     .....                         ",
"                             +++.............................+                                    .....                         ",
"                              +...............................                                    .....                         ",
"                              .................................                                   .....                         ",
"                             +.................................                                   .....                         ",
"                              ..................................                                  .....                         ",
"                              ......................+@@@+.......                                  ......                        ",
"                             ......................+@@@@@@.......                                 ......                        ",
"                             .......+@@++..........@##+@@@+......                                  .....                        ",
"                             ......+@@@@@+........+@@#+@@@+.......                                 .....+                       ",
"                             .....+@@##+@@+.......@@@++@@@........  +++                            ......                       ",
"                             .....+@@@++@@@.......+@@@+@@+........++                               ......                       ",
"                            .......@@@+@@@@........+@@@@+......+++                                  .....                       ",
"                            .......+@@+@@@+..........++....++++..     +                             .....+                      ",
"                            ........+@@@@+..............+++..... ++++++                             ......                      ",
"                            ..........+......++++......+.....+++++                                   .....                      ",
"                            .................++++.......+++++.                                       .....                      ",
"                             +.+.....+........++.......++.....                                       .....                      ",
"                               ......++........+.........+++++++++++++++.............+               .....+                     ",
"                                ..+++..................++.......+.......................             ......                     ",
"                           +++++++...++...................................................           +....+                     ",
"                       +++++       ++......................................................          ......                     ",
"                                +++..+++.....................................................        +.....                     ",
"                              ++    +.........................................................       .....+                     ",
"                           +++    ++  +........................................................      .....                      ",
"                  $$$$$$$++$$$$$$+$$$$+........................................................+    +.....                      ",
"                 $$$$$$$+$$$$$$++$$$$$+.........................................................    .....+                      ",
"                $$$$$$$$$$$$$++$$$$$$$+..........................................................  +......                      ",
"               $$$$$$$$$$$$$++$$$$$$$$$..................................................................                       ",
"              $$$$$$$$$$$$$+$$$$$$$$$$+.................................................................+                       ",
"              $$$$$$$$$$$$$$$$$$$$$$$$$.................................................................                        ",
"             $$$$$$$$$$$$$$$$$$$$$$$$$$+.................................................+$$$$$$$$$$$$$%                        ",
"             $$$$$$$$$$$$$$$$$$$$$$$$$$+.................................................$%%%%%%%%%%%%%%%%%%%%%%%%%%&&&&        ",
"             $$$$$$$$$$$$$$$$$$$$$$$$$$++++++++++++++++++++++............++$$$$$$%%@@%%%$&%%%%%%%%%%%%%%%%%%%%%%%%%%&&&&        ",
"             $$$$$$%########################################%+.........+%################%%%%%%%%%%%%%%%%%%%%%%%%%%%&&&&        ",
"             $$$$$$#################################*#####*#+.........+#***************#%%%%%%%%%%%%%%%%%%%%%%%%%%%&&&&&        ",
"              $$$$$#######*********************************#+........+#****************%%%&%%%%%%%%%%%%%%%%%%%%%%%%&&&&         ",
"              $$&%%#######*********************************#.........$****************#%%%%%%%%%%%%%%%%%%%%%%%%%%%&&&&&         ",
"              $$%#########*********************************%.........#***************#%%%%%%%%%%%%%%%%%%%%%%%%%%%%&&&&&         ",
"              $$##########********************************#$........+%###%%%%%%%%%%%%%%%%%%%%%%%%%%%%%%%%%%%%%%%%&&&&&&         ",
"              $$#########*****#########%#%%%%%%%%%%%%%%%%%%+........+$%%%%%%%%%%%%%%%%%%%%%%%%%%%%%%%%%%%%&%%%%%%&&&&&          ",
"              $$%########*****%%%%%%%%%%%%%%%%%%%%%%%%%%%%%$.....+..$%%%%%%%%%%%%%%%%%%%%%%%%%%%%%%%%%%%%%%%%%%%&&&&&&          ",
"              $$&########****#%%%%%%%%%%%%%%&%%%%%%%%%%%%%&&+....+.+$%&%&%%%%%%%%%%%%%%%%%%%%%%%%%%%%%%%&%%%%%%%&&&&&&          ",
"              $$&########****#%%%%%%%%%%%%%%%%%%%%%%%%%%%%%%$++...+$%%%%%%%%%%%%%%%%%%%%%%%%%%%%%%%%%%%%%%%%%%%&&&&&&&          ",
"              $$$########****#%%%%%%%%%%%%&%%%&%%%%%%%%%%%%%&&$$$$&%%%%%%%%%%%%%%%%%%%%%%%%%%%%%%%%%%%%%%%%%%%%&&&&&&           ",
"               $$########****%%%%%%%%%%%%%%%%%%%%%%%%%%%%%%%%&%%%%%%%%%%%%%%%%%%%%%%%%%%%%%%%%%%%%%%%%%%%%%%%%&&&&&&&           ",
"               $$########***#%%%%%&%&%&%%%&%&%%%%%%%%%&%&%%%%%%%%%%%%%%%%%%%%%%%%%%%%%%%%%%%%%%%%%%%%%%%%%%%%&&&&&&&%           ",
"               $$########***#%%%%%%%%%%%%%%%%%%%%%%%%%%%%%%%%%%%%%%%%%%%%%%%%%%%%%%%%%%%%%%%%%%%%%%%%%%%%%%%%&&&&&&&%           ",
"               $$########***#%%%%%&%%%%%%%&%%%%%%%%%%%&%%%&%%%%%%%&%%%&%%%%%%%%%%%%%%%&%%%%%%%%%%%%%%%%%%%%%&&&&&&&&            ",
"               $$########***#%%%%%%%%%%%%%%%%%%%%%%%%%%%%%%%%%%%%%%%%%%%%%%%%%%%%%%%%%%%%%%%%%%%%%%%%%%%%%%&&&&&&&&&            ",
"               $$%#######***%%%%%%%%%%%%%%%%&%%%%%%%&%&%&%%%%%%%%%&%%%%%&%%%%%%%%%&%%%%%%%%%%%&%%%%%%%%%%%%&&&&&&&&&            ",
"               $$%#######***%%%%%%%%%%%%%%%&%%%%%%%%%%%%%%%%%%%%%%%%%%%%%%%%%%%%%%%%%%%%%%%%%%%%%%%%%%%%%%&&&&&&&&&&            ",
"               $$%#######***%%%%%%%%%%&%%%&%%%&%%%%%%%%%%%&%%%%%%%%%%%%%&%&%&%&%%%&%%%%%%%%%%%%%%%%%%%%%%&&&&&&&&&&&            ",
"               $$&#######**#%%%%%%%%%&%%%%%%%%%%%%%%%&%%%%%%%%%%%%%%%%%%%%%%%%%%%%%%%%%%%%%%%%%%%%%%%%%%&&&&&&&&&&&             ",
"               $$$#######**#%%%%%%%%&%%%&%%%%%%%%%%%&%%%%%%%%%%%%%%%%%&%%%%%%%%%&%&%&%%%%%%%%%%%%%%%%%%%&&&&&&&&&&&             ",
"               $$$#######**%%%%%%%%%%%%%%%%%%%%%%%%%%%%%%%%%%%%%%%%%%%%%%%%%%%%%%%%%%%%%%&%%%%%%%%%%%%%&&&&&&&&&&&&             ",
"                $$#######**%%%%%%%%%%%%%%%%%%%%%%%%%%%%%%%%%%%%%%%%%%%%%%%&%%%&%%%%%%%&%%%&%%%%%%%%%%%&&&&&&&&&&&&&             ",
"                $$#######**%%%%%%%%%%%%%%%%%%%%%%%%%%%%%%%%%%%%%%%%%%%%%%%%%%%%%%%%%%%%%%%%%%%%%%%%%%&&&&&&&&&&&&&              ",
"                $$#######*#%%%%%%%%%&%&%%%%%%%%%&%%%%%%%%%%%%%%%%%%%%%%%%%%%%%%%%%%%%%%%&%&%%%%%%%%%&&&&&&&&&&&&&&              ",
"                $$#######*#&%%%%%%%%%%%%%%%%%%%%%%%%%%%%%%%%%%%%%%%%%%%%%%%%%%%%%%%%%%%%%%%%%%%%%%%&&&&&&&&&&&&&&&              ",
"                $$%######*#%%%%%%%%%%%&%%%%%%%%%%%%%%%%%%%%%%%%%%%%%%%%%%%%%%%%%%%%%%%%%%%%%%%%%%%&&&&&&&&&&&&&&&&              ",
"                $$%######*%%%%%%%%%%%%%%%%%%%%%%%%%%%%%%%%%%%%%%%%%%%%%%%%%%%%%%%%%%%%%%%%%%%%%%%&&&&&&&&&&&&&&&&               ",
"                $$&######*%%%%%%%%%%%%&%&%%%%%%%%%%%%%%%%%%%%%&%%%%%%%%%%%%%%%%%%%%%%%%%%%%%%%%%&&&&&&&&&&&&&&&&&               ",
"                $$&#######%%%%%%%%%%%%%%%%%%%%%%%%%%%%%%%%%%%%%%%%%%%%%%%%%%%%%%%%%%%%%%%%%%%%%&&&&&&&&&&&&&&&&&&               ",
"                 $$#######%%%%&%%%%%%%&%%%%%%%%%%%%%%%%%%%&%%%&%%%%%&%&%%%%%%%%%&%%%%%%%%%&%%%&&&&&&&&&&&&&&&&&&&               ",
"                 $&#######%%%%%%%%%%%%%%%%%%%%%%%%%%%%%%%%%%%%%%%%%%%%%%%%%%%%%%%%%%%%%%%%%%%&&&&&&&&&&&&&&&&&&&                ",
"                 $$######%%%%%%%%%%%&%%%%%%%%%%%%%%%%%%%%%%%&%&%&%&%%%%%%%%%%%%%&%%%%%%%%%%%&&&&&&&&&&&&&&&&&&&&                ",
"                 $$######%%%%%%%%%%%%%%%%%%%%%%%%%%%%%%%%%%%%%%%%%%%%%%%%%%%%%%%%%%%%%%%%%&&&&&&&&&&&&&&&&&&&&&&                ",
"                 $$######%&%%%%%%%&%%%%%%%%%%%%%%%%%%%&%%%&%%%%%%%&%%%%%%%%%&%%%%%%%%%&%%&&&&&&&&&&&&&&&&&&&&&&%                ",
"                 $$######%%%%%%%%%%%%%%%%%%%%%%%%%%%%%%%%%%%%%%%%%%%%%%%%%%%%%%%%%%%%%%%&&&&&&&&&&&&&&&&&&&&&&&&                ",
"                 $$%#####%%%%%&%&%&%&%%%%%&%&%&%%%&%%%&%&%%%%%%%%%%%%%%%%%%%%%%%%%%%%%&&&&&&&&&&&&&&&&&&&&&&&&&                 ",
"                 $$&####%%%%%%%%%%%%%%%%%%%%%%%%%%%%%%%%%%%%%%%%%%%%%%%%%%%%%%%%%%%%%&&&&&&&&&&&&&&&&&&&&&&&&&&                 ",
"                 $$&####%%%%%%&%%%&%%%&%%%&%%%&%%%&%%%&%%%&%%%%%%%%%%%%%%%%%%%%%%%%&&&&&&&&&&&&&&&&&&&&&&&&&&&&                 ",
"                 $$&####%%%%%%%%%%%%%%%%%%%%%%%%%%%%%%%%%%%%%%%%%%%%%%%%%%%%%%%%%%&&&&&&&&&&&&&&&&&&&&&&&&&&&&&                 ",
"                 $$$####%%%%%%%%%%%%%%&%&%%%%%&%%%%%%%&%&%%%&%&%%%%%%%%%%%%%%%%%&&&&&&&&&&&&&&&&&&&&&&&&&&&&&&                  ",
"                  $$####%%%%%%%%%%%%%%%%%%%%%%%%%%%%%%%%%%%%%%%%%%%%%%%%%%%%%%%&&&&&&&&&&&&&&&&&&&&&&&&&&&&&&&                  ",
"                  $$####%%%%%%%%%%%%%%%%%%&%%%&%%%%%%%%%%%&%%%&%%%%%%%%%%%%%%&&&&&&&&&&&&&&&&&&&&&&&&&&&&&&&&&                  ",
"                  $$###%%%%%%%%%%%%%%%%%%%%%%%%%%%%%%%%%%%%%%%%%%%%%%%%%%%%&&&&&&&&&&&&&&&&&&&&&&&&&&&&&&&&&&&                  ",
"                  $$###%%%%%%%%%%%%%%%&%&%&%&%%%%%%%%%%%%%%%%%%%&%&%%%%%%&&&&&&&&&&&&&&&&&&&&&&&&&&&&&&&&&&&&                   ",
"                  $$###%%%%%%%%%%%%%%%%%%%%%%%%&%%%%%%%%%%%%%%%%%%%%%%%&&&&&&&&&&&&&&&&&&&&&&&&&&&&&&&&&&&&&&                   ",
"                  $$%##%%%%%%%%%%%%%%%&%%%%%%%&%%%%%%%%%%%%%%%%%%%%%&&&&&&&&&&&&&&&&&&&&&&&&&&&&&&&&&&&&&&&&&                   ",
"                  $$%##%%%%%%%%%%%%%%%%%%%%%%%%%%%%%%%%%%%%%%%%%%%%&&&&&&&&&&&&&&&&&&&&&&&&&&&&&&&&&&&&&&&&&&                   ",
"                  $$&##%%%%%&%%%%%%%%%%%&%%%&%&%&%%%%%%%%%%%%%%%&&&&&&&&&&&&&&&&&&&&&&&&&&&&&&&&&&&&&&&&&&&&                    ",
"                  $$%#%%%%%%%%%%%%%%%%%%%%%%%%%%%%%%%%%%%%%%%&&&&&&&&&&&&&&&&&&&&&&&&&&&&&&&&&&&&&&&&&&&&&&&                    ",
"                   $$#%%%%%%%%&%%%%%%%&%%%&%%%%%%%%%%%%%%%&&&&&&&&&&&&&&&&&&&&&&&&&&&&&&&&&&&&&&&&&&&&&&&&&&                    ",
"                   $$#%%%%%%%%%%%%%%%%%%%%%%%%%%%%%%%%%&&&&&&&&&&&&&&&&&&&&&&&&&&&&&&&&&&&&&&&&&&&&&&&&&&&&&                    ",
"                   $$#%%%%%%%%&%%%%%%%%%%%%%%%%%%%%&&&&&&&&&&&&&&&&&&&&&&&&&&&&&&&&&&&&&&&&&&&&&&&&&&&&&&&&&                    ",
"                   $$%%%%%%%%%%%%%%%%%%%%%%%%%%&&&&&&&&&&&&&&&&&&&&&&&&&&&&&&&&&&&&&&&&&&&&&&&&&&&&&&&&&&&&                     ",
"                   $$&%%%%%%%%%%%%%%%%%%%&&&&&&&&&&&&&&&&&&&&&&&&&&&&&&&&&&&&&&&&&&&&&&&&&&&&&&&&&&&&&&&&&&                     ",
"                   $&%%%%%%%%%%%%%%%&&&&&&&&&&&&&&&&&&&&&&&&&&&&&&&&&&&&&&&&&&&&&&&&&&&&&&&&&&&&&&&&&&&&&&&                     ",
"                   $&%%&%&%&&&&&&&&&&&&&&&&&&&&&&&&&&&&&&&&&&&&&&&&&&&&&&&&&&&&&&&&&&&&&&&&&&&&&&&&&&&&&&%&                     ",
"                   $&&&&&&&&&&&&&&&&&&&&&&&&&&&&&&&&&&&&&&&&&&&&&&&&&&&&&&&&&&&&&&&&&&&&&&&&&&                                  ",
"                   &&&&&&&&&&&&&&&&&&&&&&&&&&&&&&&&&&&&&&&&&&&&&&&&&&&&&&&&&&&&&&&&&                                            ",
"                   $&&&&&&&&&&&&&&&&&&&&&&&&&&&&&&&&&&&&&&&&&&&&&&&&&&%&                                                        ",
"                    &&&&&&&&&&&&&&&&&&&&&&&&&&&&&&&&&&&&&&&&&                                                                   ",
"                    &&&&&&&&&&&&&&&&&&&&&&&&&&&&&                                                                               ",
"                    &&&&&&&&&&&&&&&&&&&                                                                                         ",
"                    &&&&&&                                                                                                      ",
"                                                                                                                                ",
"                                                                                                                                ",
"                                                                                                                                ",
"                                                                                                                                ",
"                                                                                                                                "};
