/* XPM */
static char * folder16_xpm[] = {
"16 16 5 1",
" 	c None",
".	c #000000",
"+	c #3D84B7",
"@	c #5D9CC9",
"#	c #98C0DD",
"                ",
" .....          ",
" .++++.         ",
" .+++++.        ",
" .............  ",
" .@@@@@@@@@@@.  ",
" .@@@@@@@@@@@.  ",
" .@@@@@@@@@@@.  ",
" .@@@@@@@@@@@.  ",
" .@@@@@@@@@@@.  ",
" .###########.  ",
" .###########.  ",
" .@@@@@@@@@@@.  ",
" .............  ",
"                ",
"                "};
