/* XPM */
static char * img16_xpm[] = {
"16 16 30 1",
" 	c None",
".	c #000000",
"+	c #DFE7E7",
"@	c #D4E1D0",
"#	c #CBDDDD",
"$	c #CADDDD",
"%	c #BDD179",
"&	c #9DC5B1",
"*	c #8EC0C1",
"=	c #8CBDBE",
"-	c #8DBFBF",
";	c #7EACA8",
">	c #486943",
",	c #C1CDC9",
"'	c #608674",
")	c #7DABA6",
"!	c #5A7F6A",
"~	c #3D5C21",
"{	c #B8BDB6",
"]	c #5E8371",
"^	c #3D5C22",
"/	c #40602D",
"(	c #729C94",
"_	c #8DBEBF",
":	c #C9DBDA",
"<	c #40602E",
"[	c #6C958A",
"}	c #436335",
"|	c #B9BFB7",
"1	c #D7D9D6",
"                ",
"                ",
" .............. ",
" .+@@#$$$$$$$+. ",
" .@%%&*******$. ",
" .@%%&******=$. ",
" .#&&***-**;>,. ",
" .$****=');!~{. ",
" .$***-]^//~~{. ",
" .$=(_)/~~~~~{. ",
" .:]<[}~~~~~~{. ",
" .|^~~~~~~~~~{. ",
" .1{{{{{{{{{{1. ",
" .............. ",
"                ",
"                "};
