/* XPM */
static char * img32_xpm[] = {
"32 32 6 1",
" 	c None",
".	c #000000",
"+	c #FFFFFF",
"@	c #8EC0C1",
"#	c #BFD275",
"$	c #3D5C21",
"                                ",
"                                ",
"                                ",
"                                ",
"                                ",
"   ..........................   ",
"   .++++++++++++++++++++++++.   ",
"   .+@@##@@@@@@@@@@@@@@@@@@+.   ",
"   .+@####@@@@@@@@@@@@@@@@@+.   ",
"   .+######@@@@@@@@@@@@@@@@+.   ",
"   .+######@@@@@@@@@@@@@@@@+.   ",
"   .+@####@@@@@@@@@@@@@@@@@+.   ",
"   .+@@##@@@@@@@@@@@@@@@$$@+.   ",
"   .+@@@@@@@@@@@@@@@@@@$$$$+.   ",
"   .+@@@@@@@@@@@@$@@@@@$$$$+.   ",
"   .+@@@@@@@@@@@$$$@@$$$$$$+.   ",
"   .+@@@@@@@@@@$$$$$$$$$$$$+.   ",
"   .+@@@@@@@@@$$$$$$$$$$$$$+.   ",
"   .+@@@@@@@@@$$$$$$$$$$$$$+.   ",
"   .+@@@$$@@@$$$$$$$$$$$$$$+.   ",
"   .+@@$$$@@$$$$$$$$$$$$$$$+.   ",
"   .+@$$$$$$$$$$$$$$$$$$$$$+.   ",
"   .+$$$$$$$$$$$$$$$$$$$$$$+.   ",
"   .+$$$$$$$$$$$$$$$$$$$$$$+.   ",
"   .+$$$$$$$$$$$$$$$$$$$$$$+.   ",
"   .++++++++++++++++++++++++.   ",
"   ..........................   ",
"                                ",
"                                ",
"                                ",
"                                ",
"                                "};
