/* XPM */
static char * link32_xpm[] = {
"32 32 5 1",
" 	c None",
".	c #000000",
"+	c #4E9C9C",
"@	c #358585",
"#	c #186E6E",
"                                ",
"                       ...      ",
"                      .+@@..    ",
"                     .+@@@@@.   ",
"                    .+@...@@@.  ",
"                   .+@.   .@@.  ",
"                  .+@.     .@#. ",
"                 .+@.      .@#. ",
"                .+@.       .@#. ",
"                .+@.      .@#.  ",
"                .+...    .@#.   ",
"                 .++..  .@#.    ",
"                .+@@@...@#.     ",
"               .+@@@#.@@#.      ",
"              .+@@@#.###.       ",
"             .+@@@#. ...        ",
"        ... .+@@@#.             ",
"       .+++.+@@@#.              ",
"      .+@@.+@@@#.               ",
"     .+@...@@@#.                ",
"    .+@.  ..@#.                 ",
"   .+@.    ...#.                ",
"  .+@.      .@#.                ",
" .+@.       .@#.                ",
" .+@.      .@#.                 ",
" .+@.     .@#.                  ",
"  .@@.   .@#.                   ",
"  .@@@...@#.                    ",
"   .@@@@@#.                     ",
"    ..###.                      ",
"      ...                       ",
"                                "};
