/* XPM */
static char * link16_xpm[] = {
"16 16 4 1",
" 	c None",
".	c #000000",
"+	c #358585",
"@	c #4E9C9C",
"           ...  ",
"          .+++. ",
"         .+  +. ",
"        .+   +. ",
"       .@.   +. ",
"        .@. +.  ",
"       .++.+.   ",
"    ...++...    ",
"   .@.++.       ",
"  .+.++.        ",
" .+  ...        ",
".+    +.        ",
".+   +.         ",
".++++.          ",
" ....           ",
"                "};
