/* XPM */
static char * pdf16_xpm[] = {
"16 16 5 1",
" 	c None",
".	c #474747",
"+	c #EFEFEF",
"@	c #000000",
"#	c #FF0000",
"                ",
"  ........      ",
"  .++++++..     ",
"  .+@@@@+.+.    ",
"  .++++++.++.   ",
"  .+@@@@+.....  ",
"  .++++++++++.  ",
"  .+@@@@@@@@+.  ",
"  .++++++++++.  ",
" ######++++++.  ",
" ######++++++.  ",
" ######++++++.  ",
" ######++++++.  ",
"  .++++++++++.  ",
"  ............  ",
"                "};
