/* XPM */
static char * toolbar_forward_xpm[] = {
"24 24 5 1",
" 	c None",
".	c #000000",
"+	c #5D86B6",
"@	c #719ACB",
"#	c #4973A1",
"                        ",
"                        ",
"                        ",
"                        ",
"                        ",
"               ..       ",
"               .+.      ",
"               .++.     ",
"   .............+++.    ",
"  .@@@@@@@@@@@@@++++.   ",
"  .++++++++++++++++++.  ",
"  .+++++++++++++++++++. ",
"  .++++++++++++++++##.  ",
"  .+++++++++++++++##.   ",
"   .............+##.    ",
"               .##.     ",
"               .#.      ",
"               ..       ",
"                        ",
"                        ",
"                        ",
"                        ",
"                        ",
"                        "};
