/* XPM */
static char * toolbar_devices_xpm[] = {
"24 24 6 1",
" 	c None",
".	c #474747",
"+	c #69A8D5",
"@	c #5D9CC9",
"#	c #4586B2",
"$	c #8FD569",
"                        ",
"                        ",
"                        ",
"                        ",
"                        ",
"                        ",
"        ..............  ",
"       .++++++++++++..  ",
"      .+@@@@@@@@@@@.#.  ",
"     .+@@@@@@@@@@@.##.  ",
"    .+@@@@@@@@@@@.###.  ",
"   .+@@@@@@@@@@@.####.  ",
"  ..............#####.  ",
"  .@@@@@@@@@@@@.####.   ",
"  .@$$@.......@.###.    ",
"  .@$$@.@@@@@.@.##.     ",
"  .@@@@.......@.#.      ",
"  .@@@@@@@@@@@@..       ",
"  ..............        ",
"                        ",
"                        ",
"                        ",
"                        ",
"                        "};
