/* XPM */
static char * toolbar_search_xpm[] = {
"24 24 7 1",
" 	c None",
".	c #000000",
"+	c #4B6D6D",
"@	c #638686",
"#	c #6790C1",
"$	c #5D86B6",
"%	c #5680AF",
"                        ",
"                        ",
"                        ",
"                        ",
"           .......      ",
"          ..+++++..     ",
"         ..++@@+++..    ",
"         .++@++++++.    ",
"         .+@+++++++.    ",
"         .+@+++++++.    ",
"         .+++++++++.    ",
"         .+++++++++.    ",
"         ..+++++++..    ",
"        .#..+++++..     ",
"       .#$%.......      ",
"      .#$%.             ",
"     .#$%.              ",
"    .#$%.               ",
"   .#$%.                ",
"  .#$%.                 ",
" .#$%.                  ",
"  .%.                   ",
"   .                    ",
"                        "};
