/* XPM */
static char * toolbar_folders_xpm[] = {
"24 24 5 1",
" 	c None",
".	c #000000",
"+	c #3D84B7",
"@	c #5D9CC9",
"#	c #98C0DD",
"                        ",
"                        ",
"        .....           ",
"       .++++.           ",
"       .+++++.          ",
"       .+++++.......    ",
"       .@@@@@@@@@@@@.   ",
"       .@@@@@@@@@@@@.   ",
"   .....@@@@@@@@@@@@.   ",
"  .++++.@@@@@@@@@@@@.   ",
"  .+++++.@@@@@@@@@@@.   ",
"  .+++++.......#####.   ",
"  .@@@@@@@@@@@@.####.   ",
"  .@@@@@@@@@@@@.@@@@.   ",
"  .@@@@@@@@@@@@.....    ",
"  .@@@@@@@@@@@@.        ",
"  .@@@@@@@@@@@@.        ",
"  .############.        ",
"  .############.        ",
"  .@@@@@@@@@@@@.        ",
"  .............         ",
"                        ",
"                        ",
"                        "};
