/* XPM */
static char * toolbar_home_xpm[] = {
"24 24 4 1",
" 	c None",
".	c #474747",
"+	c #4283AF",
"@	c #5D9CC9",
"                        ",
"                        ",
"              .         ",
"             .+.        ",
"            .+++.       ",
"           .+++++.      ",
"          .+++++++.     ",
"         ..++++++++.    ",
"        .@@.+++++++.    ",
"       .@@@@.+++++..    ",
"      .@@@@@@.+++.+.    ",
"     .@@@@@@@@.+.++.    ",
"    ............+++.    ",
"    .@@@@@@@@@@.+.+.    ",
"    .@@@@@@@@@@.+.+.    ",
"    .@@@@@@@@@@.+++.    ",
"    .@@..@@..@@.++.     ",
"    .@@..@@..@@.+.      ",
"    .@@..@@@@@@..       ",
"    ............        ",
"                        ",
"                        ",
"                        ",
"                        "};
