/* XPM */
static char * unmount16_xpm[] = {
"16 16 5 1",
" 	c None",
".	c #474747",
"+	c #7BB9E7",
"@	c #5D9CC9",
"#	c #4586B2",
"                ",
"        .       ",
"       .+.      ",
"      .+@@.     ",
"     .+@@@@.    ",
"    .+@@@@@@.   ",
"    ...@@#...   ",
"      .@@#.     ",
"      .@@#.     ",
"      .@@#.     ",
"      .@@#.     ",
"   ...@@@#.     ",
"   .@@@@#.      ",
"   .####.       ",
"   .....        ",
"                "};
