/* XPM */
static char * video32_xpm[] = {
"32 32 4 1",
" 	c None",
".	c #474747",
"+	c #ADADAD",
"@	c #000000",
"                                ",
"                                ",
"                                ",
"                                ",
"                                ",
"      ....................      ",
"    ..++++@@@+++@@@+++@@@+..    ",
"   .@@+++@@@+++@@@+++@@@+++@.   ",
"  .@@+++@@@+++@@@+++@@@+++@@@.  ",
"  .@+++@@@+++@@@+++@@@+++@@@+.  ",
" .@+++@@@+++@@@+++@@@+++@@@+++. ",
" .+++@@@+++@@@+++@@@+++@@@+++@. ",
" .............................. ",
" .++++++++++++++++++++++++++++. ",
" .++++++++++++++++++++++++++++. ",
" .++++++++++++@+++++++++++++++. ",
" .++++++++++++@@++++++++++++++. ",
" .++++++++++++@@@+++++++++++++. ",
" .++++++++++++@@@@++++++++++++. ",
" .++++++++++++@@@@++++++++++++. ",
" .++++++++++++@@@+++++++++++++. ",
" .++++++++++++@@++++++++++++++. ",
"  .+++++++++++@++++++++++++++.  ",
"  .++++++++++++++++++++++++++.  ",
"   .++++++++++++++++++++++++.   ",
"    ..++++++++++++++++++++..    ",
"      ....................      ",
"                                ",
"                                ",
"                                ",
"                                ",
"                                "};
