/* XPM */
static char * video16_xpm[] = {
"16 16 4 1",
" 	c None",
".	c #474747",
"+	c #000000",
"@	c #ADADAD",
"                ",
"                ",
"   ..........   ",
" .+@++@++@++@+  ",
" +@++@++@++@++. ",
".@++@++@++@++@. ",
".@@@@@@@@@@@@@. ",
".@@@@@@+@@@@@@. ",
".@@@@@@++@@@@@. ",
".@@@@@@++@@@@@. ",
".@@@@@@+@@@@@@. ",
" .@@@@@@@@@@@@. ",
"  ............  ",
"                ",
"                ",
"                "};
